<?xml version="1.0" encoding="UTF-8"?>
<svg xmlns="http://www.w3.org/2000/svg" xmlns:xlink="http://www.w3.org/1999/xlink" viewBox="0 0 42.23 31.62">
  <defs>
    <style>
      .cls-1 {
        fill: url(#linear-gradient-8);
      }

      .cls-2 {
        fill: url(#linear-gradient-5);
      }

      .cls-3 {
        fill: url(#linear-gradient-9);
      }

      .cls-4 {
        fill: url(#linear-gradient-4);
      }

      .cls-5 {
        fill: url(#linear-gradient-3);
      }

      .cls-6 {
        fill: #fffa9f;
      }

      .cls-7 {
        isolation: isolate;
      }

      .cls-8 {
        fill: url(#linear-gradient-2);
      }

      .cls-8, .cls-9, .cls-10, .cls-11 {
        mix-blend-mode: overlay;
      }

      .cls-9 {
        fill: url(#linear-gradient-7);
      }

      .cls-12 {
        fill: url(#linear-gradient-10);
      }

      .cls-13 {
        fill: #ff96c7;
      }

      .cls-10 {
        fill: url(#linear-gradient);
      }

      .cls-10, .cls-11 {
        opacity: .39;
      }

      .cls-11 {
        fill: url(#linear-gradient-6);
      }
    </style>
    <linearGradient id="linear-gradient" x1="224.86" y1="-46.48" x2="230.8" y2="-35.07" gradientTransform="translate(235.19 -56.3) rotate(152.96) scale(1 -1)" gradientUnits="userSpaceOnUse">
      <stop offset=".58" stop-color="#fff"/>
      <stop offset="1" stop-color="#f7f7f7" stop-opacity="0"/>
    </linearGradient>
    <linearGradient id="linear-gradient-2" x1="230.04" y1="-47.42" x2="231.48" y2="-39.71" gradientTransform="translate(235.19 -56.3) rotate(152.96) scale(1 -1)" gradientUnits="userSpaceOnUse">
      <stop offset=".48" stop-color="#fff"/>
      <stop offset="1" stop-color="#f7f7f7" stop-opacity="0"/>
    </linearGradient>
    <linearGradient id="linear-gradient-3" x1="533.68" y1="-359.19" x2="534.21" y2="-356.34" gradientTransform="translate(545.64 365.13) rotate(-180) scale(1 -1)" xlink:href="#linear-gradient-2"/>
    <linearGradient id="linear-gradient-4" x1="532.73" y1="-357.46" x2="533.01" y2="-355.94" gradientTransform="translate(546.66 363.27) rotate(-180) scale(1 -1)" xlink:href="#linear-gradient-2"/>
    <linearGradient id="linear-gradient-5" x1="235.19" y1="-27.34" x2="230.87" y2="-34.11" gradientTransform="translate(235.19 -56.3) rotate(152.96) scale(1 -1)" gradientUnits="userSpaceOnUse">
      <stop offset=".13" stop-color="#fffda1"/>
      <stop offset="1" stop-color="#f7c82f" stop-opacity="0"/>
    </linearGradient>
    <linearGradient id="linear-gradient-6" x1="615.18" y1="-143.47" x2="617.87" y2="-138.3" gradientTransform="translate(414.78 -481.62) rotate(114.13) scale(1 -1)" xlink:href="#linear-gradient"/>
    <linearGradient id="linear-gradient-7" x1="617.53" y1="-143.89" x2="618.18" y2="-140.4" gradientTransform="translate(414.78 -481.62) rotate(114.13) scale(1 -1)" xlink:href="#linear-gradient-2"/>
    <linearGradient id="linear-gradient-8" x1="780.89" y1="-674.99" x2="781.13" y2="-673.7" gradientTransform="translate(707.08 -758.73) rotate(90) scale(1 -1)" xlink:href="#linear-gradient-2"/>
    <linearGradient id="linear-gradient-9" x1="780.46" y1="-674.21" x2="780.58" y2="-673.52" gradientTransform="translate(706.95 -758.91) rotate(90) scale(1 -1)" xlink:href="#linear-gradient-2"/>
    <linearGradient id="linear-gradient-10" x1="619.86" y1="-134.8" x2="617.9" y2="-137.87" gradientTransform="translate(414.78 -481.62) rotate(114.13) scale(1 -1)" xlink:href="#linear-gradient-5"/>
  </defs>
  <g class="cls-7">
    <g id="Layer_2" data-name="Layer 2">
      <g id="Layer_1-2" data-name="Layer 1">
        <g>
          <g>
            <g>
              <path class="cls-6" d="M20.81,26.14c-.53,0-1.05-.14-1.55-.42l-5.42-3.1-5.53,2.69c-.44.22-.9.33-1.37.33h0c-.93,0-1.8-.43-2.4-1.17-.6-.75-.81-1.72-.6-2.66l1.33-5.89L1.28,11.7c-.43-.47-.68-1.01-.73-1.56-.11-.72.11-1.5.59-2.11.51-.65,1.26-1.04,2.11-1.11l5.68-.48,2.6-4.57c.48-.84,1.38-1.34,2.4-1.34.14,0,.28,0,.42.03.97.1,1.82.68,2.26,1.54l2.49,4.82,5.59,1.03c.61.11,1.16.41,1.61.84.07.06.17.16.26.27.97,1.18.92,2.8-.12,3.77l-3.95,3.79,1.18,5.91c.18.95-.03,1.86-.61,2.56-.55.67-1.37,1.06-2.24,1.06Z"/>
              <path class="cls-13" d="M13.93,1.04c.12,0,.23,0,.35.02.76.08,1.49.51,1.87,1.26l2.61,5.05,5.84,1.07c.53.1.99.36,1.34.7.08.07.16.15.23.24.73.88.82,2.21-.09,3.06l-4.16,3.99,1.23,6.19c.33,1.68-.89,3-2.34,3-.42,0-.86-.11-1.29-.35l-5.66-3.23-5.77,2.81c-.38.19-.77.27-1.14.27-1.56,0-2.88-1.49-2.49-3.2l1.39-6.16L1.65,11.34c-.35-.38-.55-.81-.59-1.25-.18-1.24.74-2.54,2.23-2.66l5.95-.51,2.73-4.81c.41-.72,1.18-1.08,1.95-1.08M13.93,0c-1.22,0-2.28.6-2.85,1.6l-2.46,4.34-5.41.46c-.99.08-1.87.55-2.47,1.3C.16,8.42-.09,9.33.03,10.21c.07.66.36,1.29.86,1.83l3.82,4.02-1.27,5.62c-.25,1.1,0,2.23.7,3.1.69.87,1.72,1.37,2.8,1.37.55,0,1.09-.13,1.6-.38l5.27-2.56,5.18,2.96c.57.32,1.19.49,1.8.49,1.02,0,1.99-.45,2.64-1.25.67-.81.93-1.9.72-2.99l-1.12-5.63,3.75-3.59c1.23-1.16,1.31-3.08.17-4.47-.1-.11-.2-.23-.33-.35-.51-.49-1.15-.82-1.84-.95l-5.35-.98-2.38-4.6c-.52-1.01-1.52-1.7-2.68-1.82-.13-.02-.3-.03-.46-.03h0Z"/>
            </g>
            <path class="cls-10" d="M20.86,16.13s5.11-4.16,4.91-5.71-7.35-2.1-7.68-2.36-2.46-6.38-3.9-6.4-3.5,5.19-4.37,5.8-7.39-.36-8.08,1.58,4.71,6.71,4.71,6.71c0,0-1.51,6.69-.96,7.96s7.63-1.95,8.71-2.36,5.64,4.39,7.25,3.34c1.61-1.05-.6-8.55-.6-8.55Z"/>
            <path class="cls-8" d="M16.47,4.59s-1.36-3.44-2.73-2.77-3.34,5.17-4.07,5.61-6.16.37-7.28.94-.54,1.86-.54,1.86c0,0,.13-.66.99-1.23s5.8.04,7.23-.59,2.44-4.55,3.82-5.59,2.58,1.76,2.58,1.76Z"/>
            <ellipse class="cls-5" cx="11.96" cy="5.94" rx="1.82" ry=".94" transform="translate(1.51 14.26) rotate(-64.96)"/>
            <ellipse class="cls-4" cx="13.93" cy="5.81" rx=".81" ry=".51" transform="translate(2.77 15.97) rotate(-64.96)"/>
            <path class="cls-2" d="M20.86,16.13s1.77,6.4,1.42,7.7-1.65,1.44-3.71.11-4.51-2.73-4.61-2.68-6,3.06-7.23,3.17-1.81-1.6-1.83-2.19,1.33-6.58,1.33-6.58"/>
          </g>
          <g>
            <g>
              <path class="cls-6" d="M35.04,31.1c-.66,0-1.24-.37-1.53-.96l-1.14-2.32-2.45-.33c-.35-.05-.65-.2-.87-.43-.29-.27-.47-.68-.47-1.11,0-.45.18-.88.52-1.2l1.76-1.68-.36-2.2c-.1-.61.2-1.22.76-1.55.25-.16.55-.25.86-.25.22,0,.44.05.64.14l2.12.94,2.14-1.16c.25-.13.52-.2.8-.2.06,0,.17,0,.17,0,.04,0,.11.01.19.03.83.17,1.36.89,1.25,1.68l-.3,2.3,1.97,1.65c.51.43.73,1.09.55,1.7-.17.61-.68,1.06-1.33,1.17l-2.64.42-1.12,2.38c-.28.6-.86.97-1.51.97Z"/>
              <path class="cls-13" d="M37.81,19.32s.08,0,.12,0c.05,0,.1,0,.15.02.51.1.91.55.84,1.1l-.34,2.59,2.19,1.83c.76.64.45,1.8-.53,1.96l-2.91.47-1.24,2.63c-.21.45-.62.67-1.04.67s-.85-.23-1.07-.67l-1.26-2.57-2.73-.37c-.23-.03-.42-.13-.56-.27-.42-.39-.46-1.1.03-1.57l1.95-1.87-.4-2.47c-.07-.43.17-.82.51-1.02.17-.11.38-.18.59-.18.14,0,.29.03.43.09l2.35,1.04,2.36-1.28c.18-.1.37-.14.55-.14M37.81,18.28h0c-.36,0-.72.09-1.04.26l-1.92,1.04-1.89-.83c-.26-.12-.55-.18-.84-.18-.41,0-.81.12-1.15.34-.71.43-1.11,1.24-.98,2.06l.31,1.93-1.56,1.49c-.44.42-.68.98-.68,1.57,0,.56.24,1.11.64,1.49.3.3.69.49,1.13.56l2.2.29,1.01,2.07c.38.77,1.14,1.25,2,1.25s1.62-.49,1.99-1.27l1-2.12,2.37-.38c.86-.14,1.53-.73,1.75-1.54.22-.82-.05-1.67-.72-2.24l-1.76-1.47.26-2.02c.15-1.05-.56-2.03-1.66-2.25-.11-.02-.2-.03-.29-.04-.06,0-.12,0-.19,0h0Z"/>
            </g>
            <path class="cls-11" d="M38.12,23.22s.62-2.92.11-3.41-3.18,1.34-3.37,1.35-2.68-1.55-3.19-1.15.24,2.82.1,3.28-2.71,1.97-2.4,2.85,3.57,1.03,3.57,1.03c0,0,1.36,2.78,1.92,3.08s2.14-2.85,2.4-3.3,3.23-.05,3.5-.88-2.64-2.84-2.64-2.84Z"/>
            <path class="cls-9" d="M33.29,20.4s-1.45-.83-1.75-.2.29,2.77.16,3.13-2.07,1.88-2.3,2.4.34.81.34.81c0,0-.14-.27,0-.71s2.06-1.63,2.38-2.26-.43-2.29-.24-3.05,1.41-.11,1.41-.11Z"/>
            <ellipse class="cls-1" cx="32.09" cy="22.15" rx=".43" ry=".82" transform="translate(-4.35 8.28) rotate(-13.78)"/>
            <ellipse class="cls-3" cx="32.75" cy="21.55" rx=".23" ry=".36" transform="translate(-4.19 8.42) rotate(-13.78)"/>
            <path class="cls-12" d="M38.12,23.22s2.44,1.75,2.68,2.31-.17.97-1.28,1.09-2.36.32-2.38.36-1.25,2.78-1.65,3.17-1.09-.05-1.27-.25-1.4-2.69-1.4-2.69"/>
          </g>
        </g>
      </g>
    </g>
  </g>
</svg>