<?xml version="1.0" encoding="UTF-8"?>
<svg xmlns="http://www.w3.org/2000/svg" viewBox="0 0 10.42 23.29">
  <defs>
    <style>
      .cls-1 {
        fill: #ffc8bf;
      }

      .cls-2 {
        isolation: isolate;
      }

      .cls-3 {
        mix-blend-mode: multiply;
      }

      .cls-4 {
        fill: none;
        stroke: #ffc8bf;
        stroke-linecap: round;
        stroke-linejoin: round;
        stroke-width: .55px;
      }
    </style>
  </defs>
  <g class="cls-2">
    <g id="Layer_2" data-name="Layer 2">
      <g id="Layer_1-2" data-name="Layer 1">
        <g class="cls-3">
          <path class="cls-1" d="M10.23,17.72c.37-.36.17-.99-.35-1.07l-2.51-.36c-.2-.03-.38-.16-.47-.34l-1.13-2.28c-.23-.46-.89-.46-1.13,0l-1.12,2.28c-.1.18-.27.31-.47.34l-2.51.36c-.52.08-.73.71-.35,1.07l1.82,1.78c.15.14.22.35.18.55l-.43,2.5c-.09.52.45.9.91.66l2.25-1.18c.18-.1.4-.1.59,0l2.25,1.18c.46.24,1-.15.91-.66l-.43-2.5c-.04-.2.03-.41.18-.55l1.82-1.78ZM7.2,19.15c-.09.09-.13.22-.11.34l.27,1.56c.05.32-.28.57-.57.41l-1.41-.74c-.11-.06-.25-.06-.36,0l-1.4.74c-.29.15-.62-.1-.57-.41l.27-1.56c.02-.13-.02-.25-.11-.34l-1.13-1.11c-.23-.22-.1-.62.22-.67l1.57-.23c.13-.01.24-.1.3-.21l.7-1.42c.14-.29.55-.29.7,0l.7,1.42c.06.11.17.2.29.21l1.57.23c.32.05.45.45.22.67l-1.13,1.11Z"/>
          <ellipse class="cls-1" cx="6.76" cy="18.24" rx="1.12" ry=".29" transform="translate(-6.04 3.59) rotate(-20.81)"/>
          <ellipse class="cls-1" cx="6.21" cy="20.19" rx=".29" ry="1.12" transform="translate(-12.01 9.52) rotate(-42.55)"/>
          <ellipse class="cls-1" cx="4.12" cy="20.23" rx="1.12" ry=".29" transform="translate(-13.85 10.06) rotate(-48.97)"/>
          <path class="cls-1" d="M4.92,17c0-.62.13-1.12.29-1.12s.29.5.29,1.12-.13,1.12-.29,1.12-.29-.5-.29-1.12Z"/>
          <ellipse class="cls-1" cx="3.42" cy="18.24" rx=".29" ry="1.12" transform="translate(-14.61 13.89) rotate(-65.81)"/>
          <line class="cls-4" x1="5.21" y1=".27" x2="5.21" y2="14.15"/>
        </g>
      </g>
    </g>
  </g>
</svg>