<?xml version="1.0" encoding="UTF-8"?>
<svg id="Layer_2" data-name="Layer 2" xmlns="http://www.w3.org/2000/svg" xmlns:xlink="http://www.w3.org/1999/xlink" viewBox="0 0 48.29 11.7">
  <defs>
    <style>
      .cls-1 {
        fill: url(#radial-gradient-7);
      }

      .cls-2 {
        fill: url(#radial-gradient-6);
      }

      .cls-3 {
        fill: url(#radial-gradient-5);
      }

      .cls-4 {
        fill: url(#radial-gradient-4);
      }

      .cls-5 {
        fill: url(#radial-gradient-3);
      }

      .cls-6 {
        fill: url(#radial-gradient-2);
      }

      .cls-7 {
        fill: url(#radial-gradient);
      }
    </style>
    <radialGradient id="radial-gradient" cx="2.81" cy="3.09" fx="2.81" fy="3.09" r="2.81" gradientUnits="userSpaceOnUse">
      <stop offset=".14" stop-color="#fff" stop-opacity="0"/>
      <stop offset=".23" stop-color="#fff" stop-opacity=".02"/>
      <stop offset=".33" stop-color="#fff" stop-opacity=".08"/>
      <stop offset=".45" stop-color="#fff" stop-opacity=".18"/>
      <stop offset=".58" stop-color="#fff" stop-opacity=".32"/>
      <stop offset=".71" stop-color="#fff" stop-opacity=".5"/>
      <stop offset=".84" stop-color="#fff" stop-opacity=".71"/>
      <stop offset=".98" stop-color="#fff" stop-opacity=".97"/>
      <stop offset="1" stop-color="#fff"/>
    </radialGradient>
    <radialGradient id="radial-gradient-2" cx="2.43" cy="4.63" fx="2.43" fy="4.63" r="3.13" gradientTransform="translate(1.9 -1.91) rotate(35.07)" xlink:href="#radial-gradient"/>
    <radialGradient id="radial-gradient-3" cx="-958.07" cy="510.12" fx="-958.07" fy="510.12" r="1.31" gradientTransform="translate(796.73 -503.98) scale(.83 1)" xlink:href="#radial-gradient"/>
    <radialGradient id="radial-gradient-4" cx="4.28" cy="4" fx="4.28" fy="4" r=".87" xlink:href="#radial-gradient"/>
    <radialGradient id="radial-gradient-5" cx="-179.15" cy="31.58" fx="-179.15" fy="31.58" r="5.74" gradientTransform="translate(205.24 -76.73) rotate(-16.85)" xlink:href="#radial-gradient"/>
    <radialGradient id="radial-gradient-6" cx="-180.51" cy="33.39" fx="-180.51" fy="33.39" r="4.78" gradientTransform="translate(205.99 81.38) rotate(35.07)" xlink:href="#radial-gradient"/>
    <radialGradient id="radial-gradient-7" cx="-1135.16" cy="396.37" fx="-1135.16" fy="396.37" r="2" gradientTransform="translate(981.66 -387.74) scale(.83 1)" xlink:href="#radial-gradient"/>
  </defs>
  <g id="Layer_1-2" data-name="Layer 1">
    <g>
      <circle class="cls-7" cx="2.81" cy="3.09" r="2.81"/>
      <ellipse class="cls-6" cx="3.98" cy="2.04" rx=".71" ry=".89" transform="translate(-.45 2.66) rotate(-35.07)"/>
      <ellipse class="cls-5" cx="1.3" cy="4.86" rx=".24" ry=".42" transform="translate(-3.11 2.44) rotate(-46.22)"/>
      <circle class="cls-4" cx="4.72" cy="3.31" r=".22"/>
    </g>
    <g>
      <path class="cls-3" d="M42.5.37l1.4,1.5c.26.28.64.41,1.02.35l2.03-.31c.95-.14,1.66.87,1.19,1.71l-.99,1.8c-.18.33-.19.74-.02,1.08l.92,1.83c.43.86-.31,1.84-1.26,1.66l-2.01-.39c-.38-.07-.76.05-1.03.31l-1.46,1.44c-.69.68-1.85.27-1.97-.68l-.25-2.03c-.05-.38-.28-.71-.62-.89l-1.82-.94c-.85-.44-.83-1.67.04-2.08l1.86-.87c.35-.16.59-.48.65-.86l.34-2.02c.16-.95,1.34-1.31,1.99-.6Z"/>
      <ellipse class="cls-2" cx="43.27" cy="3.09" rx="1.09" ry="1.37" transform="translate(14.16 35.25) rotate(-51.93)"/>
      <ellipse class="cls-1" cx="39.37" cy="6.67" rx=".36" ry=".64" transform="translate(15.6 38.76) rotate(-63.08)"/>
    </g>
  </g>
</svg>