<?xml version="1.0" encoding="UTF-8"?>
<svg xmlns="http://www.w3.org/2000/svg" xmlns:xlink="http://www.w3.org/1999/xlink" viewBox="0 0 37.02 31.14">
  <defs>
    <style>
      .cls-1, .cls-2, .cls-3 {
        fill: none;
      }

      .cls-4 {
        fill: #ffc8bf;
      }

      .cls-5 {
        isolation: isolate;
      }

      .cls-6 {
        mix-blend-mode: multiply;
      }

      .cls-2 {
        stroke-width: .86px;
      }

      .cls-2, .cls-3 {
        stroke: #ffc8bf;
        stroke-linecap: round;
        stroke-linejoin: round;
      }

      .cls-3 {
        stroke-width: .55px;
      }

      .cls-7 {
        clip-path: url(#clippath);
      }
    </style>
    <clipPath id="clippath">
      <rect class="cls-1" width="37.02" height="31.14"/>
    </clipPath>
  </defs>
  <g class="cls-5">
    <g id="Layer_2" data-name="Layer 2">
      <g id="Layer_1-2" data-name="Layer 1">
        <g class="cls-7">
          <g class="cls-6">
            <path class="cls-4" d="M30.83,19.03c.58-.57.26-1.56-.55-1.68l-3.95-.57c-.32-.05-.6-.25-.74-.54l-1.77-3.58c-.36-.73-1.4-.73-1.77,0l-1.76,3.58c-.15.29-.42.49-.74.54l-3.95.57c-.81.12-1.14,1.11-.55,1.68l2.86,2.79c.23.22.34.55.28.87l-.67,3.93c-.14.81.7,1.42,1.43,1.04l3.53-1.85c.29-.15.63-.15.92,0l3.53,1.85c.72.38,1.57-.23,1.43-1.04l-.67-3.93c-.06-.32.05-.65.28-.87l2.86-2.79ZM26.07,21.28c-.14.14-.21.34-.17.54l.42,2.45c.08.5-.44.89-.89.65l-2.21-1.16c-.17-.09-.39-.09-.57,0l-2.2,1.16c-.45.24-.98-.15-.89-.65l.42-2.45c.03-.2-.03-.4-.18-.54l-1.78-1.74c-.36-.35-.16-.97.34-1.05l2.46-.36c.2-.02.38-.15.47-.33l1.1-2.23c.22-.46.87-.46,1.1,0l1.1,2.23c.09.18.26.31.46.33l2.46.36c.51.08.71.7.34,1.05l-1.78,1.74Z"/>
            <ellipse class="cls-4" cx="25.38" cy="19.84" rx="1.76" ry=".46" transform="translate(-5.39 10.31) rotate(-20.81)"/>
            <ellipse class="cls-4" cx="24.52" cy="22.9" rx=".46" ry="1.76" transform="translate(-9.03 22.61) rotate(-42.55)"/>
            <ellipse class="cls-4" cx="21.23" cy="22.97" rx="1.76" ry=".46" transform="translate(-10.04 23.91) rotate(-48.97)"/>
            <path class="cls-4" d="M22.48,17.89c0-.97.21-1.76.46-1.76s.46.79.46,1.76-.21,1.76-.46,1.76-.46-.79-.46-1.76Z"/>
            <ellipse class="cls-4" cx="20.13" cy="19.84" rx=".46" ry="1.76" transform="translate(-6.21 30.08) rotate(-65.81)"/>
            <line class="cls-2" x1="22.94" y1="-11.61" x2="22.94" y2="13.42"/>
          </g>
          <g class="cls-6">
            <path class="cls-4" d="M14.93,9.07c.37-.36.17-.99-.35-1.07l-2.51-.36c-.2-.03-.38-.16-.47-.34l-1.13-2.28c-.23-.46-.89-.46-1.13,0l-1.12,2.28c-.1.18-.27.31-.47.34l-2.51.36c-.52.08-.73.71-.35,1.07l1.82,1.78c.15.14.22.35.18.55l-.43,2.5c-.09.52.45.9.91.66l2.25-1.18c.18-.1.4-.1.59,0l2.25,1.18c.46.24,1-.15.91-.66l-.43-2.5c-.04-.2.03-.41.18-.55l1.82-1.78ZM11.9,10.51c-.09.09-.13.22-.11.34l.27,1.56c.05.32-.28.57-.57.41l-1.41-.74c-.11-.06-.25-.06-.36,0l-1.4.74c-.29.15-.62-.1-.57-.41l.27-1.56c.02-.13-.02-.25-.11-.34l-1.13-1.11c-.23-.22-.1-.62.22-.67l1.57-.23c.13-.01.24-.1.3-.21l.7-1.42c.14-.29.55-.29.7,0l.7,1.42c.06.11.17.2.29.21l1.57.23c.32.05.45.45.22.67l-1.13,1.11Z"/>
            <ellipse class="cls-4" cx="11.46" cy="9.59" rx="1.12" ry=".29" transform="translate(-2.66 4.7) rotate(-20.81)"/>
            <ellipse class="cls-4" cx="10.91" cy="11.54" rx=".29" ry="1.12" transform="translate(-4.93 10.42) rotate(-42.55)"/>
            <ellipse class="cls-4" cx="8.82" cy="11.58" rx="1.12" ry=".29" transform="translate(-5.71 10.63) rotate(-48.97)"/>
            <path class="cls-4" d="M9.61,8.35c0-.62.13-1.12.29-1.12s.29.5.29,1.12-.13,1.12-.29,1.12-.29-.5-.29-1.12Z"/>
            <ellipse class="cls-4" cx="8.12" cy="9.59" rx=".29" ry="1.12" transform="translate(-3.95 13.07) rotate(-65.81)"/>
            <line class="cls-3" x1="9.91" y1="-10.42" x2="9.91" y2="5.5"/>
          </g>
        </g>
      </g>
    </g>
  </g>
</svg>